# This file is brought to you by Roblox Corporation
# Generated by Roblox Studio

mtllib test.mtl

g Union1

v -8.52001 1.01004 -5.99 
v 40.15 1.01004 -5.99 
v 40.15 0.010037 -5.99 
v 40.15 1.01004 -5.99 
v -8.52001 1.01004 -5.99 
v 27.0718 1.01004 -4.24564 
v 22.7392 1.01004 -3.08475 
v 5.22617 1.01004 -0.375767 
v 6.86452 1.01004 -0.160077 
v 17.65 1.01004 -0.560002 
v 11.3406 1.01004 4.31591 
v 18.7019 1.01004 2.1767 
v 10.7082 1.01004 2.78923 
v 11.5563 1.01004 5.95423 
v 18.4066 1.01004 4.41937 
v 18.7019 1.01004 6.66203 
v 6.86452 1.01004 12.0685 
v 17.65 1.01004 23.8 
v 8.39123 1.01004 11.4362 
v 5.22617 1.01004 12.2842 
v 5.22617 1.01004 12.2842 
v 6.86452 1.01004 12.0685 
v 5.23211 0.010037 12.2842 
v -8.52001 1.01004 23.8 
v 9.70224 1.01004 10.4302 
v 8.39123 1.01004 11.4362 
v 6.87046 0.010037 12.0685 
v 20.9446 1.01004 10.5464 
v 9.70224 1.01004 10.4302 
v 8.39716 0.010037 11.4362 
v 10.7082 1.01004 9.11924 
v 9.70224 1.01004 10.4302 
v 10.7082 1.01004 9.11924 
v 10.7141 0.010037 9.11924 
v 11.3406 1.01004 7.59256 
v 11.3406 1.01004 7.59256 
v 19.5675 1.01004 8.75187 
v 11.5563 1.01004 5.95423 
v 11.3465 0.010037 7.59256 
v 11.3406 1.01004 4.31591 
v 11.5622 0.010037 5.95423 
v 9.70224 1.01004 1.47825 
v 10.7082 1.01004 2.78923 
v 10.7141 0.010037 2.78923 
v 8.39123 1.01004 0.472293 
v 9.70224 1.01004 1.47825 
v 9.70817 0.010037 1.47825 
v 9.70224 1.01004 1.47825 
v 8.39123 1.01004 0.472293 
v 8.39716 0.010037 0.472293 
v 6.86452 1.01004 -0.160077 
v 6.87046 0.010037 -0.160077 
v 3.58782 1.01004 -0.160077 
v 5.22617 1.01004 -0.375767 
v 5.2321 0.010037 -0.375767 
v 2.06111 1.01004 0.472294 
v 3.58782 1.01004 -0.160077 
v 3.59375 0.010037 -0.160077 
v 0.750104 1.01004 1.47825 
v 2.06111 1.01004 0.472294 
v 2.06705 0.010037 0.472294 
v -0.255866 1.01004 2.78923 
v 0.750104 1.01004 1.47825 
v 0.756039 0.010037 1.47825 
v -0.888249 1.01004 4.31591 
v 0.750104 1.01004 1.47825 
v -0.255866 1.01004 2.78923 
v 0.756039 0.010037 1.47825 
v -1.10394 1.01004 5.95423 
v -0.888249 1.01004 4.31591 
v -0.882314 0.010037 4.31591 
v -0.888246 1.01004 7.59256 
v -1.10394 1.01004 5.95423 
v -0.255864 1.01004 9.11924 
v -0.888246 1.01004 7.59256 
v -0.882312 0.010037 7.59256 
v 0.750107 1.01004 10.4302 
v -0.255864 1.01004 9.11924 
v 2.06112 1.01004 11.4362 
v 0.750107 1.01004 10.4302 
v 0.756042 0.010037 10.4302 
v 3.58782 1.01004 12.0685 
v 0.750107 1.01004 10.4302 
v 2.06112 1.01004 11.4362 
v 0.756042 0.010037 10.4302 
v 3.58782 1.01004 12.0685 
v 2.06705 0.010037 11.4362 
v 3.59375 0.010037 12.0685 
v 27.0718 1.01004 13.0844 
v 29.3145 1.01004 12.7891 
v 27.0777 0.010037 13.0844 
v 29.3145 1.01004 12.7891 
v 27.0718 1.01004 13.0844 
v 40.15 1.01004 23.8 
v 31.4044 1.01004 11.9235 
v 33.199 1.01004 10.5464 
v 31.4044 1.01004 11.9235 
v 29.3204 0.010037 12.7891 
v 34.576 1.01004 8.75186 
v 33.199 1.01004 10.5464 
v 31.4103 0.010037 11.9235 
v 35.4417 1.01004 6.66203 
v 33.199 1.01004 10.5464 
v 34.576 1.01004 8.75186 
v 33.2049 0.010037 10.5464 
v 35.7369 1.01004 4.41936 
v 35.4417 1.01004 6.66203 
v 35.4476 0.010037 6.66203 
v 35.7369 1.01004 4.41936 
v 35.4417 1.01004 2.17669 
v 35.4476 0.010037 2.17669 
v 35.4417 1.01004 2.17669 
v 34.576 1.01004 0.0868692 
v 33.199 1.01004 -1.70772 
v 34.576 1.01004 0.0868692 
v 33.199 1.01004 -1.70772 
v 34.582 0.010037 0.0868692 
v 31.4044 1.01004 -3.08475 
v 29.3145 1.01004 -3.95039 
v 33.199 1.01004 -1.70772 
v 31.4044 1.01004 -3.08475 
v 31.4103 0.010037 -3.08475 
v 29.3145 1.01004 -3.95039 
v 29.3204 0.010037 -3.95039 
v 24.8291 1.01004 -3.95038 
v 27.0718 1.01004 -4.24564 
v 27.0777 0.010037 -4.24564 
v 24.8291 1.01004 -3.95038 
v 24.835 0.010037 -3.95038 
v 20.9446 1.01004 -1.70772 
v 22.7392 1.01004 -3.08475 
v 22.7451 0.010037 -3.08475 
v 20.9446 1.01004 -1.70772 
v 20.9505 0.010037 -1.70772 
v 19.5675 1.01004 0.0868616 
v 20.9446 1.01004 -1.70772 
v 19.5675 1.01004 0.0868616 
v 20.9505 0.010037 -1.70772 
v 18.7019 1.01004 2.1767 
v 19.5735 0.010037 0.0868616 
v 18.4066 1.01004 4.41937 
v 18.4126 0.010037 4.41937 
v 18.7019 1.01004 6.66203 
v 18.7078 0.010037 6.66203 
v 19.5675 1.01004 8.75187 
v 19.5735 0.010037 8.75187 
v 22.7392 1.01004 11.9235 
v 20.9446 1.01004 10.5464 
v 20.9505 0.010037 10.5464 
v 24.8291 1.01004 12.7891 
v 20.9446 1.01004 10.5464 
v 22.7392 1.01004 11.9235 
v 20.9505 0.010037 10.5464 
v 24.8291 1.01004 12.7891 
v 22.7452 0.010037 11.9235 
v 24.835 0.010037 12.7891 
v -8.52001 1.01004 23.8 
v -8.52001 0.010037 23.8 
v 17.65 1.01004 23.8 
v -8.52001 0.010037 23.8 
v -8.52001 1.01004 23.8 
v -8.52001 0.010037 -5.99 
v 40.15 0.010037 23.8 
v 40.15 0.010037 23.8 
v -8.52001 0.010037 23.8 
v 17.65 0.010037 13.44 
v -8.52001 0.010037 -5.99 
v -8.52001 1.01004 -5.99 
v -8.52001 0.010037 -5.99 
v -1.09801 0.010037 5.95423 
v 40.15 0.010037 -5.99 
v 27.0777 0.010037 -4.24564 
v 11.5622 0.010037 5.95423 
v 18.4126 0.010037 4.41937 
v 18.7078 0.010037 6.66203 
v 11.3465 0.010037 4.31591 
v 5.23211 0.010037 12.2842 
v 3.59375 0.010037 12.0685 
v 6.87046 0.010037 12.0685 
v 8.39716 0.010037 11.4362 
v 9.70817 0.010037 10.4302 
v 9.70817 0.010037 10.4302 
v 10.7141 0.010037 9.11924 
v 9.70817 0.010037 10.4302 
v 11.3465 0.010037 7.59256 
v 19.5735 0.010037 8.75187 
v 11.3465 0.010037 4.31591 
v 11.65 0.010037 -0.560002 
v 10.7141 0.010037 2.78923 
v 18.7078 0.010037 2.1767 
v 9.70817 0.010037 1.47825 
v 8.39716 0.010037 0.472293 
v 9.70817 0.010037 1.47825 
v 6.87046 0.010037 -0.160077 
v 5.2321 0.010037 -0.375767 
v 3.59375 0.010037 -0.160077 
v 2.06705 0.010037 0.472294 
v 0.756039 0.010037 1.47825 
v -0.249932 0.010037 2.78923 
v -0.249932 0.010037 2.78923 
v -0.882314 0.010037 4.31591 
v -1.09801 0.010037 5.95423 
v -0.882312 0.010037 7.59256 
v -0.24993 0.010037 9.11924 
v -0.24993 0.010037 9.11924 
v 0.756042 0.010037 10.4302 
v 2.06705 0.010037 11.4362 
v 24.835 0.010037 12.7891 
v 27.0777 0.010037 13.0844 
v 29.3204 0.010037 12.7891 
v 31.4103 0.010037 11.9235 
v 33.2049 0.010037 10.5464 
v 33.2049 0.010037 10.5464 
v 34.582 0.010037 8.75186 
v 34.582 0.010037 8.75186 
v 35.4476 0.010037 6.66203 
v 35.7429 0.010037 4.41936 
v 35.7429 0.010037 4.41936 
v 35.4476 0.010037 2.17669 
v 34.582 0.010037 0.0868692 
v 33.2049 0.010037 -1.70772 
v 31.4103 0.010037 -3.08475 
v 33.2049 0.010037 -1.70772 
v 33.2049 0.010037 -1.70772 
v 29.3204 0.010037 -3.95039 
v 24.835 0.010037 -3.95038 
v 22.7451 0.010037 -3.08475 
v 20.9505 0.010037 -1.70772 
v 19.5735 0.010037 0.0868616 
v 18.7078 0.010037 2.1767 
v 20.9505 0.010037 10.5464 
v 22.7452 0.010037 11.9235 
v 40.15 0.010037 -5.99 
v 40.15 1.01004 -5.99 
v 40.15 1.01004 23.8 
v 40.15 1.01004 23.8 
v 40.15 0.010037 23.8 

vn 0 0 -1 
vn 0 0 -1 
vn 0 0 -1 
vn 0 1 0 
vn 0 1 0 
vn 0 1 0 
vn 0 1 0 
vn 0 1 0 
vn 0 1 0 
vn 0 1 0 
vn 0 1 0 
vn 0 1 0 
vn 0 1 0 
vn 0 1 0 
vn 0 1 0 
vn 0 1 0 
vn 0 1 0 
vn 0 1 0 
vn 0 1 0 
vn 0 1 0 
vn 0 0 -1 
vn -0.259843 0 -0.968504 
vn 0 0 -1 
vn 0 1 0 
vn 0 1 0 
vn -0.496063 0 -0.866142 
vn -0.259843 0 -0.968504 
vn 0 1 0 
vn -0.708661 -0.00787402 -0.708661 
vn -0.496063 0 -0.866142 
vn 0 1 0 
vn -0.708661 -0.00787402 -0.708661 
vn -0.866142 -0.00787402 -0.503937 
vn -0.866142 -0.00787402 -0.503937 
vn -0.968504 -0.00787402 -0.259843 
vn 0 1 0 
vn 0 1 0 
vn -1 -0.00787402 0 
vn -0.968504 -0.00787402 -0.259843 
vn -0.968504 -0.00787402 0.259843 
vn -1 -0.00787402 0 
vn 0 1 0 
vn -0.866142 -0.00787402 0.503937 
vn -0.866142 -0.00787402 0.503937 
vn 0 1 0 
vn -0.708661 -0.00787402 0.708661 
vn -0.708661 -0.00787402 0.708661 
vn -0.708661 -0.00787402 0.708661 
vn -0.496063 0 0.866142 
vn -0.496063 0 0.866142 
vn -0.259843 0 0.968504 
vn -0.259843 0 0.968504 
vn 0 1 0 
vn 0 0 1 
vn 0 0 1 
vn 0 1 0 
vn 0.259843 0 0.968504 
vn 0.259843 0 0.968504 
vn 0 1 0 
vn 0.496063 0 0.866142 
vn 0.496063 0 0.866142 
vn 0 1 0 
vn 0.708661 0.00787402 0.708661 
vn 0.708661 0.00787402 0.708661 
vn 0 1 0 
vn 0.708661 0.00787402 0.708661 
vn 0.866142 0.00787402 0.503937 
vn 0.708661 0.00787402 0.708661 
vn 0 1 0 
vn 0.968504 0.00787402 0.259843 
vn 0.968504 0.00787402 0.259843 
vn 0 1 0 
vn 1 0.00787402 0 
vn 0 1 0 
vn 0.968504 0.00787402 -0.259843 
vn 0.968504 0.00787402 -0.259843 
vn 0 1 0 
vn 0.866142 0.00787402 -0.503937 
vn 0 1 0 
vn 0.708661 0.00787402 -0.708661 
vn 0.708661 0.00787402 -0.708661 
vn 0 1 0 
vn 0.708661 0.00787402 -0.708661 
vn 0.496063 0 -0.866142 
vn 0.708661 0.00787402 -0.708661 
vn 0.259843 0 -0.968504 
vn 0.496063 0 -0.866142 
vn 0.259843 0 -0.968504 
vn 0 0 -1 
vn -0.259843 0 -0.968504 
vn 0 0 -1 
vn 0 1 0 
vn 0 1 0 
vn 0 1 0 
vn 0 1 0 
vn 0 1 0 
vn -0.496063 0 -0.866142 
vn -0.259843 0 -0.968504 
vn 0 1 0 
vn -0.708661 -0.00787402 -0.708661 
vn -0.496063 0 -0.866142 
vn 0 1 0 
vn -0.708661 -0.00787402 -0.708661 
vn -0.866142 -0.00787402 -0.503937 
vn -0.708661 -0.00787402 -0.708661 
vn 0 1 0 
vn -0.968504 -0.00787402 -0.259843 
vn -0.968504 -0.00787402 -0.259843 
vn -1 -0.00787402 0 
vn -0.968504 -0.00787402 0.259843 
vn -0.968504 -0.00787402 0.259843 
vn 0 1 0 
vn 0 1 0 
vn 0 1 0 
vn -0.866142 -0.00787402 0.496063 
vn -0.708661 -0.00787402 0.708661 
vn -0.866142 -0.00787402 0.496063 
vn 0 1 0 
vn 0 1 0 
vn -0.708661 -0.00787402 0.708661 
vn -0.496063 0 0.866142 
vn -0.496063 0 0.866142 
vn -0.259843 0 0.968504 
vn -0.259843 0 0.968504 
vn 0 1 0 
vn 0 0 1 
vn 0 0 1 
vn 0.259843 0 0.968504 
vn 0.259843 0 0.968504 
vn 0 1 0 
vn 0.496063 0 0.866142 
vn 0.496063 0 0.866142 
vn 0.708661 0.00787402 0.708661 
vn 0.708661 0.00787402 0.708661 
vn 0 1 0 
vn 0.708661 0.00787402 0.708661 
vn 0.866142 0.00787402 0.503937 
vn 0.708661 0.00787402 0.708661 
vn 0.968504 0.00787402 0.259843 
vn 0.866142 0.00787402 0.503937 
vn 1 0.00787402 0 
vn 1 0.00787402 0 
vn 0.968504 0.00787402 -0.259843 
vn 0.968504 0.00787402 -0.259843 
vn 0.866142 0.00787402 -0.503937 
vn 0.866142 0.00787402 -0.503937 
vn 0 1 0 
vn 0.708661 0.00787402 -0.708661 
vn 0.708661 0.00787402 -0.708661 
vn 0 1 0 
vn 0.708661 0.00787402 -0.708661 
vn 0.496063 0 -0.866142 
vn 0.708661 0.00787402 -0.708661 
vn 0.259843 0 -0.968504 
vn 0.496063 0 -0.866142 
vn 0.259843 0 -0.968504 
vn 0 0 1 
vn 0 0 1 
vn 0 0 1 
vn -1 0 0 
vn -1 0 0 
vn -1 0 0 
vn 0 0 1 
vn 0 -1 0 
vn 0 -1 0 
vn 0 -1 0 
vn 0 0 -1 
vn -1 0 0 
vn 0 -1 0 
vn 0 -1 0 
vn 0 -1 0 
vn 0 -1 0 
vn 0 -1 0 
vn 0 -1 0 
vn 0 -1 0 
vn 0 -1 0 
vn 0 -1 0 
vn 0 -1 0 
vn 0 -1 0 
vn 0 -1 0 
vn 0 -1 0 
vn -0.708661 -0.00787402 -0.708661 
vn 0 -1 0 
vn -0.708661 -0.00787402 -0.708661 
vn 0 -1 0 
vn 0 -1 0 
vn -0.968504 -0.00787402 0.259843 
vn 0 -1 0 
vn 0 -1 0 
vn 0 -1 0 
vn 0 -1 0 
vn 0 -1 0 
vn -0.708661 -0.00787402 0.708661 
vn 0 -1 0 
vn 0 -1 0 
vn 0 -1 0 
vn 0 -1 0 
vn 0 -1 0 
vn 0 -1 0 
vn 0.866142 0.00787402 0.503937 
vn 0 -1 0 
vn 1 0.00787402 0 
vn 0 -1 0 
vn 0.866142 0.00787402 -0.503937 
vn 0 -1 0 
vn 0 -1 0 
vn 0 -1 0 
vn 0 -1 0 
vn 0 -1 0 
vn 0 -1 0 
vn 0 -1 0 
vn -0.708661 -0.00787402 -0.708661 
vn 0 -1 0 
vn 0 -1 0 
vn -0.866142 -0.00787402 -0.503937 
vn 0 -1 0 
vn -1 -0.00787402 0 
vn 0 -1 0 
vn 0 -1 0 
vn 0 -1 0 
vn 0 -1 0 
vn 0 -1 0 
vn -0.708661 -0.00787402 0.708661 
vn -0.708661 -0.00787402 0.708661 
vn 0 -1 0 
vn 0 -1 0 
vn 0 -1 0 
vn 0 -1 0 
vn 0 -1 0 
vn 0.968504 0.00787402 0.259843 
vn 0 -1 0 
vn 0 -1 0 
vn 1 0 0 
vn 1 0 0 
vn 1 0 0 
vn 0 0 1 
vn 1 0 0 

vt 57.5922 -21.5916 
vt -5.67878 -21.5916 
vt -5.67878 -22.8916 
vt -5.67878 -41.6051 
vt 57.5922 -41.6051 
vt 11.3229 -39.3374 
vt 16.9552 -37.8282 
vt 39.7222 -34.3066 
vt 37.5923 -34.0262 
vt 23.5712 -34.5461 
vt 31.7734 -28.2074 
vt 22.2038 -30.9884 
vt 32.5955 -30.1921 
vt 31.493 -26.0776 
vt 22.5876 -28.0729 
vt 22.2038 -25.1574 
vt 37.5923 -18.129 
vt 23.5712 -2.87807 
vt 35.6076 -18.951 
vt 39.7222 -17.8486 
vt 39.7222 -21.5916 
vt 37.5923 -21.5916 
vt 39.7145 -22.8916 
vt 57.5922 -2.87807 
vt 33.9033 -20.2588 
vt 35.6076 -21.5916 
vt 37.5846 -22.8916 
vt 19.2882 -20.1077 
vt 33.9033 -21.5916 
vt 35.5999 -22.8916 
vt 32.5955 -21.9631 
vt 27.9395 -21.5916 
vt 26.2352 -21.5916 
vt 26.2352 -22.8916 
vt 24.2506 -21.5916 
vt 31.7734 -23.9477 
vt 21.0784 -22.4406 
vt 22.1207 -21.5916 
vt 24.2506 -22.8916 
vt 19.9909 -21.5916 
vt 22.1207 -22.8916 
vt 33.9033 -31.8964 
vt 18.0062 -21.5916 
vt 18.0062 -22.8916 
vt 35.6076 -33.2041 
vt 16.3019 -21.5916 
vt 16.3019 -22.8916 
vt 18.0101 -21.5916 
vt 16.3058 -21.5916 
vt 16.3135 -22.8916 
vt 14.3211 -21.5916 
vt 14.3288 -22.8916 
vt 41.8521 -34.0262 
vt 12.1913 -21.5916 
vt 12.199 -22.8916 
vt 43.8368 -33.2041 
vt 10.0614 -21.5916 
vt 10.0691 -22.8916 
vt 45.5411 -31.8963 
vt 8.07668 -21.5916 
vt 8.0844 -22.8916 
vt 46.8488 -30.1921 
vt 6.37237 -21.5916 
vt 6.38008 -22.8916 
vt 47.6709 -28.2074 
vt 35.6115 -21.5916 
vt 33.9072 -21.5916 
vt 35.6115 -22.8916 
vt 47.9513 -26.0776 
vt 31.9225 -21.5916 
vt 31.9225 -22.8916 
vt 47.6709 -23.9477 
vt 29.7927 -21.5916 
vt 46.8488 -21.9631 
vt 27.6629 -21.5916 
vt 27.6629 -22.8916 
vt 45.5411 -20.2588 
vt 25.6782 -21.5916 
vt 43.8368 -18.951 
vt 23.9739 -21.5916 
vt 23.9739 -22.8916 
vt 41.852 -18.129 
vt 45.5411 -21.5916 
vt 43.8368 -21.5916 
vt 45.5334 -22.8916 
vt 41.852 -21.5916 
vt 43.829 -22.8916 
vt 41.8443 -22.8916 
vt 11.3229 -21.5916 
vt 8.40738 -21.5916 
vt 11.3152 -22.8916 
vt 8.40738 -17.1922 
vt 11.3229 -16.8084 
vt -5.67878 -2.87807 
vt 5.69054 -18.3176 
vt 3.35755 -20.1077 
vt 5.69054 -21.5916 
vt 8.39966 -22.8916 
vt 1.56738 -22.4406 
vt 3.35755 -21.5916 
vt 5.68283 -22.8916 
vt 0.442036 -25.1574 
vt 28.0906 -21.5916 
vt 25.7576 -21.5916 
vt 28.0906 -22.8916 
vt 0.0582008 -28.0729 
vt 23.0409 -21.5916 
vt 23.0409 -22.8916 
vt 20.1254 -21.5916 
vt 17.2099 -21.5916 
vt 17.2099 -22.8916 
vt 0.442041 -30.9884 
vt 1.56738 -33.7051 
vt 3.35755 -36.0381 
vt 14.4932 -21.5916 
vt 12.1602 -21.5916 
vt 14.4932 -22.8916 
vt 5.69055 -37.8282 
vt 8.40738 -38.9536 
vt 48.5559 -21.5916 
vt 46.2229 -21.5916 
vt 46.2306 -22.8916 
vt 43.5061 -21.5916 
vt 43.5138 -22.8916 
vt 14.2384 -38.9536 
vt 40.5905 -21.5916 
vt 40.5983 -22.8916 
vt 37.675 -21.5916 
vt 37.6827 -22.8916 
vt 19.2882 -36.0381 
vt 34.9582 -21.5916 
vt 34.9659 -22.8916 
vt 32.6252 -21.5916 
vt 32.6329 -22.8916 
vt 21.0784 -33.7052 
vt 39.7533 -21.5916 
vt 37.4203 -21.5916 
vt 39.7533 -22.8916 
vt 34.7035 -21.5916 
vt 37.4203 -22.8916 
vt 31.788 -21.5916 
vt 31.788 -22.8916 
vt 28.8726 -21.5916 
vt 28.8726 -22.8916 
vt 26.1558 -21.5916 
vt 26.1558 -22.8916 
vt 16.9552 -18.3176 
vt 23.8228 -21.5916 
vt 23.8228 -22.8916 
vt 14.2384 -17.1922 
vt 19.2882 -21.5916 
vt 16.9552 -21.5916 
vt 19.2805 -22.8916 
vt 14.2384 -21.5916 
vt 16.9475 -22.8916 
vt 14.2307 -22.8916 
vt -5.67878 -21.5916 
vt -5.67878 -22.8916 
vt 28.3422 -21.5916 
vt 45.3202 -22.8916 
vt 45.3202 -21.5916 
vt 6.59322 -22.8916 
vt 57.5922 -22.8916 
vt 57.5922 -2.87807 
vt -5.67878 -2.87807 
vt 28.3422 -16.3461 
vt 57.5922 -22.8916 
vt 6.59322 -21.5916 
vt -5.67878 -41.6051 
vt 3.96983 -26.0776 
vt 57.5922 -41.6051 
vt 40.5983 -39.3374 
vt 20.4281 -26.0776 
vt 29.3336 -28.0729 
vt 29.7174 -25.1574 
vt 20.1477 -28.2074 
vt 12.199 -17.8486 
vt 10.0691 -18.129 
vt 14.3288 -18.129 
vt 16.3135 -18.951 
vt 18.0179 -20.2588 
vt 33.8956 -22.8916 
vt 19.3256 -21.9631 
vt 27.9395 -22.8916 
vt 20.1477 -23.9477 
vt 30.8428 -22.4406 
vt 19.9909 -22.8916 
vt 20.5422 -34.5461 
vt 19.3256 -30.1921 
vt 29.7174 -30.9884 
vt 18.0179 -31.8964 
vt 16.3135 -33.2041 
vt 18.0179 -22.8916 
vt 14.3288 -34.0262 
vt 12.199 -34.3066 
vt 10.0691 -34.0262 
vt 8.0844 -33.2041 
vt 6.38008 -31.8963 
vt 5.07232 -30.1921 
vt 33.9072 -22.8916 
vt 4.25023 -28.2074 
vt 29.7927 -22.8916 
vt 4.25023 -23.9477 
vt 25.6782 -22.8916 
vt 5.07232 -21.9631 
vt 6.38009 -20.2588 
vt 8.0844 -18.951 
vt 37.6827 -17.1922 
vt 40.5983 -16.8084 
vt 43.5138 -17.1922 
vt 46.2306 -18.3176 
vt 3.34984 -22.8916 
vt 48.5636 -20.1077 
vt 50.3538 -22.4406 
vt 25.7576 -22.8916 
vt 51.4791 -25.1574 
vt 20.1254 -22.8916 
vt 51.863 -28.0729 
vt 51.4791 -30.9884 
vt 50.3538 -33.7051 
vt 48.5636 -36.0381 
vt 46.2306 -37.8282 
vt 12.1602 -22.8916 
vt 48.5636 -22.8916 
vt 43.5138 -38.9536 
vt 37.6827 -38.9536 
vt 34.9659 -37.8282 
vt 32.6329 -36.0381 
vt 30.8427 -33.7052 
vt 34.7035 -22.8916 
vt 32.6329 -20.1077 
vt 34.9659 -18.3176 
vt 45.3202 -22.8916 
vt 45.3202 -21.5916 
vt 6.59322 -21.5916 
vt 57.5922 -21.5916 
vt 6.59322 -22.8916 

usemtl Union1Mtl

f 1/1/1 2/2/2 3/3/3 
f 4/4/4 5/5/5 6/6/6 
f 7/7/7 8/8/8 9/9/9 
f 8/8/8 7/7/7 5/5/5 
f 10/10/10 11/11/11 12/12/12 
f 11/11/11 10/10/10 13/13/13 
f 14/14/14 15/15/15 11/11/11 
f 15/15/15 14/14/14 16/16/16 
f 17/17/17 18/18/18 19/19/19 
f 18/18/18 17/17/17 20/20/20 
f 21/21/21 22/22/22 23/23/23 
f 18/18/18 20/20/20 24/24/24 
f 19/19/19 18/18/18 25/25/25 
f 22/22/22 26/26/26 27/27/27 
f 25/25/25 18/18/18 28/28/28 
f 26/26/26 29/29/29 30/30/30 
f 25/25/25 28/28/28 31/31/31 
f 32/32/32 33/33/33 34/34/34 
f 33/33/33 35/35/35 34/34/34 
f 36/36/36 31/31/31 37/37/37 
f 35/35/35 38/38/38 39/39/39 
f 14/14/14 36/36/36 16/16/16 
f 38/38/38 40/40/40 41/41/41 
f 13/13/13 10/10/10 42/42/42 
f 40/40/40 43/43/43 44/44/44 
f 42/42/42 10/10/10 45/45/45 
f 43/43/43 46/46/46 47/47/47 
f 45/45/45 10/10/10 9/9/9 
f 48/48/48 49/49/49 50/50/50 
f 9/9/9 10/10/10 7/7/7 
f 49/49/49 51/51/51 52/52/52 
f 8/8/8 5/5/5 53/53/53 
f 51/51/51 54/54/54 55/55/55 
f 53/53/53 5/5/5 56/56/56 
f 54/54/54 57/57/57 58/58/58 
f 56/56/56 5/5/5 59/59/59 
f 57/57/57 60/60/60 61/61/61 
f 59/59/59 5/5/5 62/62/62 
f 60/60/60 63/63/63 64/64/64 
f 62/62/62 5/5/5 65/65/65 
f 66/66/66 67/67/67 68/68/68 
f 65/65/65 5/5/5 69/69/69 
f 67/67/67 70/70/70 71/71/71 
f 24/24/24 69/69/69 5/5/5 
f 69/69/69 24/24/24 72/72/72 
f 70/70/70 73/73/73 71/71/71 
f 72/72/72 24/24/24 74/74/74 
f 73/73/73 75/75/75 76/76/76 
f 74/74/74 24/24/24 77/77/77 
f 75/75/75 78/78/78 76/76/76 
f 77/77/77 24/24/24 79/79/79 
f 78/78/78 80/80/80 81/81/81 
f 79/79/79 24/24/24 82/82/82 
f 83/83/83 84/84/84 85/85/85 
f 84/84/84 86/86/86 87/87/87 
f 86/86/86 21/21/21 88/88/88 
f 20/20/20 82/82/82 24/24/24 
f 89/89/89 90/90/90 91/91/91 
f 92/92/92 93/93/93 94/94/94 
f 95/95/95 94/94/94 96/96/96 
f 94/94/94 95/95/95 92/92/92 
f 90/90/90 97/97/97 98/98/98 
f 96/96/96 94/94/94 99/99/99 
f 97/97/97 100/100/100 101/101/101 
f 99/99/99 94/94/94 102/102/102 
f 103/103/103 104/104/104 105/105/105 
f 102/102/102 4/4/4 106/106/106 
f 4/4/4 102/102/102 94/94/94 
f 104/104/104 107/107/107 108/108/108 
f 107/107/107 109/109/109 108/108/108 
f 109/109/109 110/110/110 111/111/111 
f 112/112/112 106/106/106 4/4/4 
f 113/113/113 4/4/4 114/114/114 
f 4/4/4 113/113/113 112/112/112 
f 110/110/110 115/115/115 111/111/111 
f 115/115/115 116/116/116 117/117/117 
f 118/118/118 4/4/4 119/119/119 
f 4/4/4 118/118/118 114/114/114 
f 120/120/120 121/121/121 122/122/122 
f 119/119/119 4/4/4 6/6/6 
f 121/121/121 123/123/123 124/124/124 
f 6/6/6 5/5/5 125/125/125 
f 123/123/123 126/126/126 127/127/127 
f 125/125/125 5/5/5 7/7/7 
f 126/126/126 128/128/128 129/129/129 
f 7/7/7 10/10/10 130/130/130 
f 128/128/128 131/131/131 132/132/132 
f 131/131/131 133/133/133 134/134/134 
f 10/10/10 12/12/12 135/135/135 
f 136/136/136 137/137/137 138/138/138 
f 135/135/135 130/130/130 10/10/10 
f 11/11/11 15/15/15 12/12/12 
f 137/137/137 139/139/139 140/140/140 
f 16/16/16 36/36/36 37/37/37 
f 139/139/139 141/141/141 142/142/142 
f 141/141/141 143/143/143 144/144/144 
f 143/143/143 145/145/145 146/146/146 
f 28/28/28 18/18/18 147/147/147 
f 145/145/145 148/148/148 149/149/149 
f 28/28/28 37/37/37 31/31/31 
f 18/18/18 150/150/150 147/147/147 
f 150/150/150 18/18/18 93/93/93 
f 151/151/151 152/152/152 153/153/153 
f 152/152/152 154/154/154 155/155/155 
f 154/154/154 89/89/89 156/156/156 
f 157/157/157 158/158/158 159/159/159 
f 160/160/160 161/161/161 162/162/162 
f 159/159/159 158/158/158 163/163/163 
f 164/164/164 165/165/165 166/166/166 
f 167/167/167 1/1/1 3/3/3 
f 168/168/168 162/162/162 161/161/161 
f 165/165/165 169/169/169 170/170/170 
f 169/169/169 171/171/171 172/172/172 
f 173/173/173 174/174/174 175/175/175 
f 174/174/174 173/173/173 176/176/176 
f 177/177/177 165/165/165 178/178/178 
f 165/165/165 177/177/177 179/179/179 
f 27/27/27 23/23/23 22/22/22 
f 30/30/30 27/27/27 26/26/26 
f 179/179/179 180/180/180 166/166/166 
f 166/166/166 180/180/180 181/181/181 
f 182/182/182 30/30/30 29/29/29 
f 166/166/166 181/181/181 183/183/183 
f 34/34/34 184/184/184 32/32/32 
f 166/166/166 183/183/183 185/185/185 
f 39/39/39 34/34/34 35/35/35 
f 166/166/166 185/185/185 186/186/186 
f 41/41/41 39/39/39 38/38/38 
f 185/185/185 173/173/173 175/175/175 
f 187/187/187 41/41/41 40/40/40 
f 188/188/188 176/176/176 189/189/189 
f 176/176/176 188/188/188 190/190/190 
f 44/44/44 187/187/187 40/40/40 
f 188/188/188 189/189/189 191/191/191 
f 47/47/47 44/44/44 43/43/43 
f 188/188/188 191/191/191 192/192/192 
f 50/50/50 193/193/193 48/48/48 
f 188/188/188 192/192/192 194/194/194 
f 52/52/52 50/50/50 49/49/49 
f 188/188/188 194/194/194 195/195/195 
f 55/55/55 52/52/52 51/51/51 
f 188/188/188 195/195/195 169/169/169 
f 58/58/58 55/55/55 54/54/54 
f 195/195/195 196/196/196 169/169/169 
f 61/61/61 58/58/58 57/57/57 
f 196/196/196 197/197/197 169/169/169 
f 169/169/169 197/197/197 198/198/198 
f 64/64/64 61/61/61 60/60/60 
f 169/169/169 198/198/198 199/199/199 
f 200/200/200 68/68/68 67/67/67 
f 169/169/169 199/199/199 201/201/201 
f 71/71/71 200/200/200 67/67/67 
f 169/169/169 201/201/201 170/170/170 
f 202/202/202 71/71/71 73/73/73 
f 76/76/76 202/202/202 73/73/73 
f 170/170/170 203/203/203 165/165/165 
f 204/204/204 76/76/76 78/78/78 
f 203/203/203 205/205/205 165/165/165 
f 81/81/81 204/204/204 78/78/78 
f 205/205/205 206/206/206 165/165/165 
f 165/165/165 206/206/206 207/207/207 
f 87/87/87 85/85/85 84/84/84 
f 165/165/165 207/207/207 178/178/178 
f 88/88/88 87/87/87 86/86/86 
f 23/23/23 88/88/88 21/21/21 
f 164/164/164 208/208/208 209/209/209 
f 208/208/208 164/164/164 166/166/166 
f 98/98/98 91/91/91 90/90/90 
f 209/209/209 210/210/210 164/164/164 
f 101/101/101 98/98/98 97/97/97 
f 210/210/210 211/211/211 164/164/164 
f 212/212/212 101/101/101 100/100/100 
f 211/211/211 213/213/213 164/164/164 
f 164/164/164 213/213/213 214/214/214 
f 215/215/215 105/105/105 104/104/104 
f 164/164/164 214/214/214 216/216/216 
f 108/108/108 215/215/215 104/104/104 
f 164/164/164 216/216/216 171/171/171 
f 217/217/217 108/108/108 109/109/109 
f 216/216/216 218/218/218 171/171/171 
f 111/111/111 217/217/217 109/109/109 
f 218/218/218 219/219/219 171/171/171 
f 117/117/117 111/111/111 115/115/115 
f 219/219/219 220/220/220 171/171/171 
f 171/171/171 221/221/221 222/222/222 
f 221/221/221 171/171/171 220/220/220 
f 223/223/223 117/117/117 116/116/116 
f 122/122/122 224/224/224 120/120/120 
f 171/171/171 222/222/222 225/225/225 
f 124/124/124 122/122/122 121/121/121 
f 171/171/171 225/225/225 172/172/172 
f 127/127/127 124/124/124 123/123/123 
f 129/129/129 127/127/127 126/126/126 
f 172/172/172 226/226/226 169/169/169 
f 132/132/132 129/129/129 128/128/128 
f 226/226/226 227/227/227 169/169/169 
f 169/169/169 227/227/227 188/188/188 
f 134/134/134 132/132/132 131/131/131 
f 227/227/227 228/228/228 188/188/188 
f 140/140/140 138/138/138 137/137/137 
f 228/228/228 229/229/229 188/188/188 
f 188/188/188 229/229/229 190/190/190 
f 230/230/230 140/140/140 139/139/139 
f 142/142/142 230/230/230 139/139/139 
f 190/190/190 174/174/174 176/176/176 
f 144/144/144 142/142/142 141/141/141 
f 146/146/146 144/144/144 143/143/143 
f 175/175/175 186/186/186 185/185/185 
f 149/149/149 146/146/146 145/145/145 
f 186/186/186 231/231/231 166/166/166 
f 155/155/155 153/153/153 152/152/152 
f 231/231/231 232/232/232 166/166/166 
f 208/208/208 166/166/166 232/232/232 
f 156/156/156 155/155/155 154/154/154 
f 91/91/91 156/156/156 89/89/89 
f 233/233/233 234/234/234 235/235/235 
f 163/163/163 236/236/236 159/159/159 
f 235/235/235 237/237/237 233/233/233 
f 94/94/94 93/93/93 18/18/18 
f 166/166/166 165/165/165 179/179/179 

