# This file is brought to you by Roblox Corporation
# Generated by Roblox Studio

mtllib main.mtl

g Union1

v -28.465 0 91.4836 
v -29.4884 0 91.9075 
v -29.216 2.54118 92.9242 
v -29.4884 0 91.9075 
v -28.465 0 91.4836 
v -20.1796 0 121.765 
v -20.1796 0 121.765 
v -28.465 0 91.4836 
v -28.1874 2.54118 92.4982 
v -32.3915 0 92.2897 
v -29.216 2.54114 92.9242 
v -32.3915 0 92.2897 
v -24.0378 0 122.821 
v -32.3915 0 92.2897 
v -24.0378 0 122.821 
v -32.1135 2.54113 93.3057 
v -53.5582 0 14.9298 
v -50.4585 0 13.6459 
v -50.7309 2.54115 12.6292 
v -50.4585 0 13.6459 
v -53.5582 0 14.9298 
v -68.874 0 -41.0461 
v -68.874 0 -41.0461 
v -53.5582 0 14.9298 
v -53.8358 2.54115 13.9152 
v -49.7867 0 13.5574 
v -50.7309 2.54114 12.6292 
v -49.7867 0 13.5574 
v -65.0158 0 -42.1018 
v -24.0378 118.17 122.821 
v -33.2488 35.1931 89.1565 
v -34.8959 43.3208 83.1367 
v -37.363 50.6456 74.1199 
v -39.9734 54.9662 64.5793 
v -32.1135 24.8151 93.3057 
v -33.2488 35.1931 89.1565 
v -34.8959 43.3208 83.1367 
v -31.8493 42.8503 83.0966 
v -32.1135 24.8151 93.3057 
v -29.216 24.8151 92.9242 
v -31.7263 13.6781 94.7209 
v -29.216 24.8151 92.9242 
v -31.7263 13.6781 94.7209 
v -40.1573 55.2185 63.9074 
v -37.363 50.6456 74.1199 
v -39.9734 54.9662 64.5793 
v -39.9734 55.2419 63.9137 
v -34.8959 43.3208 83.1367 
v -33.2893 50.1811 73.8517 
v -43.2028 56.283 52.7767 
v -68.874 118.17 -41.0461 
v -40.1573 55.2185 63.9074 
v -43.2028 56.283 52.7767 
v -39.9734 56.7081 52.7767 
v -39.9734 55.2419 63.9137 
v -24.0378 118.17 122.821 
v -24.0378 0 122.821 
v -20.1796 0 121.765 
v -32.1135 2.54113 93.3057 
v -46.192 54.4511 41.8516 
v -46.192 54.4511 41.8516 
v -42.0833 54.9736 41.7116 
v -48.9283 49.9222 31.8512 
v -50.9151 44.0236 24.5899 
v -47.3544 42.9651 22.447 
v -50.9151 44.0236 24.5899 
v -48.9283 49.9222 31.8512 
v -52.7021 35.1931 18.0587 
v -50.9151 44.0236 24.5899 
v -52.7021 35.1931 18.0587 
v -49.6184 35.1931 16.7814 
v -53.8358 24.8151 13.9152 
v -54.2225 13.6781 12.502 
v -53.8358 24.8151 13.9152 
v -54.2225 13.6781 12.502 
v -50.7309 24.8151 12.6292 
v -53.8358 2.54115 13.9152 
v -51.1104 13.6781 11.2129 
v -68.874 0 -41.0461 
v -68.874 118.17 -41.0461 
v -65.0158 0 -42.1018 
v -24.0378 118.17 122.821 
v -20.1796 118.17 121.765 
v -65.0158 118.17 -42.1018 
v -20.1796 118.17 121.765 
v -68.874 118.17 -41.0461 
v -65.0158 118.17 -42.1018 
v -20.1796 118.17 121.765 
v -39.9734 56.2666 49.4228 
v -65.0158 118.17 -42.1018 
v -29.3211 35.1931 88.3547 
v -30.9468 43.2261 82.4133 
v -30.9468 43.2261 82.4133 
v -29.3211 35.1931 88.3547 
v -28.1874 24.8151 92.4982 
v -30.3286 35.1931 88.772 
v -28.1874 24.8151 92.4982 
v -33.2893 50.1811 73.8517 
v -36.0452 54.7424 63.7798 
v -30.9468 43.2261 82.4133 
v -31.8493 42.8503 83.0966 
v -27.8007 13.6781 93.9115 
v -39.0557 56.5873 52.7767 
v -39.0557 56.5873 52.7767 
v -36.0452 54.7424 63.7798 
v -27.8007 13.6781 93.9115 
v -28.1874 2.54118 92.4982 
v -28.8365 13.6781 94.3405 
v -39.9734 56.2666 49.4228 
v -44.8546 50.3867 31.583 
v -42.0833 54.9736 41.7116 
v -47.3544 42.9651 22.447 
v -44.8546 50.3867 31.583 
v -50.4519 13.6781 11.1262 
v -65.0158 0 -42.1018 
v -50.0647 24.8151 12.5414 
v -50.0647 2.54114 12.5414 
v -48.9294 35.1931 16.6907 
v -48.9294 35.1931 16.6907 
v -47.3544 42.9651 22.447 
v -49.6184 35.1931 16.7814 
v -50.0647 24.8151 12.5414 
v -50.4519 13.6781 11.1262 
v -50.0647 2.54114 12.5414 
v -49.7867 0 13.5574 
v -30.3286 35.1931 88.772 
v -28.8365 13.6781 94.3405 
v -48.0977 42.8503 22.4567 
v -48.0977 42.8503 22.4567 
v -51.1104 13.6781 11.2129 

vn -0.267717 0.322835 -0.905512 
vn -0.244094 0.322835 -0.913386 
vn -0.251969 0.259843 -0.929134 
vn 0 -1 0 
vn 0 -1 0 
vn 0 -1 0 
vn 0.96063 0 -0.267717 
vn 0.96063 0 -0.267717 
vn 0.96063 0 -0.267717 
vn -0.181102 0.322835 -0.929134 
vn -0.251969 0.259843 -0.929134 
vn 0 -1 0 
vn 0 -1 0 
vn -0.96063 0 0.267717 
vn -0.96063 0 0.267717 
vn -0.96063 0 0.267717 
vn 0.322835 0.322835 0.889764 
vn 0.244094 0.322835 0.913386 
vn 0.251969 0.259843 0.929134 
vn 0 -1 0 
vn 0 -1 0 
vn 0 -1 0 
vn -0.96063 0 0.267717 
vn -0.96063 0 0.267717 
vn -0.96063 0 0.267717 
vn 0.228346 0.322835 0.92126 
vn 0.251969 0.259843 0.929134 
vn 0 -1 0 
vn 0 -1 0 
vn -0.96063 0 0.267717 
vn -0.96063 0 0.267717 
vn -0.96063 0 0.267717 
vn -0.96063 0 0.267717 
vn -0.96063 0 0.267717 
vn -0.96063 0 0.267717 
vn -0.15748 -0.503937 -0.850394 
vn -0.11811 -0.692913 -0.708661 
vn -0.188976 -0.677165 -0.708661 
vn -0.181102 -0.259843 -0.944882 
vn -0.251969 -0.259843 -0.929134 
vn -0.19685 0 -0.984252 
vn -0.251969 -0.259843 -0.929134 
vn -0.96063 0 0.267717 
vn -0.96063 0 0.267717 
vn -0.0629921 -0.866142 -0.496063 
vn 0 -0.96063 -0.275591 
vn 0 -0.968504 -0.259843 
vn -0.11811 -0.692913 -0.708661 
vn -0.15748 -0.858268 -0.496063 
vn -0.96063 0 0.267717 
vn -0.96063 0 0.267717 
vn 0.00787402 -0.968504 -0.259843 
vn 0.0787402 -1 0 
vn 0 -1 0 
vn 0 -0.968504 -0.259843 
vn 0.267717 0 0.96063 
vn 0.267717 0 0.96063 
vn 0.267717 0 0.96063 
vn -0.181102 0.259843 -0.944882 
vn -0.96063 0 0.267717 
vn 0.149606 -0.952756 0.259843 
vn 0.0472441 -0.968504 0.259843 
vn 0.212598 -0.850394 0.488189 
vn 0.251969 -0.708661 0.661417 
vn 0.173228 -0.685039 0.708661 
vn -0.96063 0 0.267717 
vn -0.96063 0 0.267717 
vn -0.96063 0 0.267717 
vn 0.251969 -0.708661 0.661417 
vn 0.299213 -0.503937 0.811024 
vn 0.220472 -0.496063 0.834646 
vn -0.96063 0 0.267717 
vn -0.96063 0 0.267717 
vn 0.322835 -0.259843 0.905512 
vn 0.330709 0 0.944882 
vn 0.251969 -0.259843 0.929134 
vn 0.322835 0.259843 0.905512 
vn 0.259843 0 0.968504 
vn -0.267717 0 -0.96063 
vn -0.267717 0 -0.96063 
vn -0.267717 0 -0.96063 
vn 0 1 0 
vn 0 1 0 
vn 0 1 0 
vn 0.267717 0 0.96063 
vn 0 1 0 
vn 0.96063 0 -0.267717 
vn 0.96063 0 -0.267717 
vn 0.96063 0 -0.267717 
vn -0.267717 0 -0.96063 
vn 0.96063 0 -0.267717 
vn 0.96063 0 -0.267717 
vn -0.212598 -0.692913 -0.692913 
vn -0.251969 -0.503937 -0.826772 
vn -0.275591 -0.259843 -0.929134 
vn -0.220472 -0.496063 -0.834646 
vn 0.96063 0 -0.267717 
vn 0.96063 0 -0.267717 
vn 0.96063 0 -0.267717 
vn -0.212598 -0.692913 -0.692913 
vn -0.188976 -0.677165 -0.708661 
vn 0.96063 0 -0.267717 
vn 0.96063 0 -0.267717 
vn -0.023622 -1 0 
vn -0.0944882 -0.96063 -0.259843 
vn -0.283465 0 -0.96063 
vn -0.275591 0.259843 -0.929134 
vn -0.259843 0 -0.968504 
vn 0 -1 0.0787402 
vn 0.96063 0 -0.267717 
vn 0.96063 0 -0.267717 
vn 0.96063 0 -0.267717 
vn 0.11811 -0.858268 0.496063 
vn 0.96063 0 -0.267717 
vn 0.96063 0 -0.267717 
vn 0.96063 0 -0.267717 
vn 0.96063 0 -0.267717 
vn 0.96063 0 -0.267717 
vn 0.204724 -0.503937 0.84252 
vn 0.173228 -0.685039 0.708661 
vn 0.220472 -0.496063 0.834646 
vn 0.23622 -0.259843 0.937008 
vn 0.244094 0 0.968504 
vn 0.23622 0.259843 0.937008 
vn 0.96063 0 -0.267717 
vn -0.220472 -0.496063 -0.834646 
vn -0.259843 0 -0.968504 
vn 0.188976 -0.677165 0.708661 
vn 0.188976 -0.677165 0.708661 
vn 0.259843 0 0.968504 

vt 132.077 -170.859 
vt 133.505 -170.859 
vt 133.512 -167.555 
vt 133.505 -163.844 
vt 132.077 -163.664 
vt 132.077 -204.477 
vt 24.2479 -170.859 
vt 65.0609 -170.859 
vt 63.6935 -167.555 
vt 137.277 -170.859 
vt 133.512 -167.555 
vt 137.277 -163.328 
vt 137.277 -204.477 
vt 203.956 -170.859 
vt 245.105 -170.859 
vt 205.325 -167.555 
vt 132.077 -170.859 
vt 136.404 -170.859 
vt 136.411 -167.555 
vt 132.949 -58.5167 
vt 137.277 -59.0632 
vt 137.277 16.3802 
vt 24.2479 -170.859 
vt 99.6914 -170.859 
vt 98.324 -167.555 
vt 137.277 -170.859 
vt 136.411 -167.555 
vt 132.077 -58.6363 
vt 132.077 16.3802 
vt 245.105 -17.2379 
vt 199.733 -125.108 
vt 191.62 -114.542 
vt 179.467 -105.02 
vt 166.608 -99.4027 
vt 205.325 -138.599 
vt 137.277 -125.108 
vt 137.277 -114.542 
vt 133.443 -115.153 
vt 137.277 -138.599 
vt 133.512 -138.599 
vt 137.277 -153.077 
vt 133.512 -138.599 
vt 207.233 -153.077 
vt 165.703 -99.0747 
vt 137.277 -138.839 
vt 137.277 -125.98 
vt 137.048 -125.145 
vt 137.277 -150.991 
vt 132.077 -139.9 
vt 150.701 -97.6909 
vt 24.2479 -17.2379 
vt 137.277 -125.074 
vt 137.277 -110.073 
vt 133.227 -111.181 
vt 137.048 -125.145 
vt 132.077 -17.2379 
vt 132.077 -170.859 
vt 137.277 -170.859 
vt 137.277 -167.555 
vt 135.976 -100.072 
vt 137.277 -95.348 
vt 132.077 -96.5821 
vt 137.277 -81.8695 
vt 137.277 -72.0829 
vt 132.077 -70.6175 
vt 112.711 -113.628 
vt 122.498 -105.96 
vt 103.908 -125.108 
vt 132.077 -113.628 
vt 132.077 -125.108 
vt 136.382 -125.108 
vt 98.324 -138.599 
vt 96.4192 -153.077 
vt 132.077 -138.599 
vt 132.077 -153.077 
vt 136.411 -138.599 
vt 132.077 -167.555 
vt 136.421 -153.077 
vt 137.277 -170.859 
vt 137.277 -17.2379 
vt 132.077 -170.859 
vt 132.077 -204.477 
vt 137.277 -204.477 
vt 137.277 16.3802 
vt 137.277 -17.2379 
vt 132.077 16.3802 
vt 245.105 -17.2379 
vt 24.2479 -17.2379 
vt 121.75 -97.7123 
vt 132.077 -17.2379 
vt 69.278 -125.108 
vt 77.2857 -114.665 
vt 132.077 -114.665 
vt 132.077 -125.108 
vt 132.077 -138.599 
vt 133.483 -125.108 
vt 63.6935 -138.599 
vt 88.8249 -105.623 
vt 102.4 -99.6937 
vt 132.077 -151.439 
vt 133.443 -151.986 
vt 61.7887 -153.077 
vt 117.229 -97.2953 
vt 132.077 -111.495 
vt 132.077 -126.325 
vt 132.077 -153.077 
vt 132.077 -167.555 
vt 133.522 -153.077 
vt 132.077 -106.975 
vt 145.794 -105.356 
vt 132.143 -99.3931 
vt 158.107 -115.004 
vt 132.077 -82.9309 
vt 173.365 -153.077 
vt 245.105 -170.859 
vt 171.458 -138.599 
vt 171.458 -167.555 
vt 165.866 -125.108 
vt 137.277 -125.108 
vt 137.277 -115.004 
vt 136.382 -125.108 
vt 137.277 -138.599 
vt 137.277 -153.077 
vt 137.277 -167.555 
vt 170.089 -170.859 
vt 133.483 -125.108 
vt 133.522 -153.077 
vt 133.012 -70.3747 
vt 136.341 -115.153 
vt 136.421 -153.077 

usemtl Union1Mtl

f 1/1/1 2/2/2 3/3/3 
f 4/4/4 5/5/5 6/6/6 
f 7/7/7 8/8/8 9/9/9 
f 2/2/2 10/10/10 11/11/11 
f 12/12/12 4/4/4 13/13/13 
f 14/14/14 15/15/15 16/16/16 
f 17/17/17 18/18/18 19/19/19 
f 20/20/20 21/21/21 22/22/22 
f 23/23/23 24/24/24 25/25/25 
f 18/18/18 26/26/26 27/27/27 
f 28/28/28 20/20/20 29/29/29 
f 30/30/30 31/31/31 15/15/15 
f 31/31/31 30/30/30 32/32/32 
f 32/32/32 30/30/30 33/33/33 
f 33/33/33 30/30/30 34/34/34 
f 15/15/15 31/31/31 35/35/35 
f 36/36/36 37/37/37 38/38/38 
f 39/39/39 36/36/36 40/40/40 
f 41/41/41 39/39/39 42/42/42 
f 35/35/35 43/43/43 15/15/15 
f 34/34/34 30/30/30 44/44/44 
f 45/45/45 46/46/46 47/47/47 
f 48/48/48 45/45/45 49/49/49 
f 50/50/50 30/30/30 51/51/51 
f 30/30/30 50/50/50 44/44/44 
f 52/52/52 53/53/53 54/54/54 
f 46/46/46 52/52/52 55/55/55 
f 56/56/56 57/57/57 58/58/58 
f 15/15/15 43/43/43 16/16/16 
f 10/10/10 59/59/59 11/11/11 
f 50/50/50 51/51/51 60/60/60 
f 53/53/53 61/61/61 62/62/62 
f 63/63/63 64/64/64 65/65/65 
f 66/66/66 67/67/67 51/51/51 
f 68/68/68 51/51/51 23/23/23 
f 51/51/51 68/68/68 66/66/66 
f 69/69/69 70/70/70 71/71/71 
f 23/23/23 72/72/72 68/68/68 
f 72/72/72 23/23/23 73/73/73 
f 70/70/70 74/74/74 71/71/71 
f 74/74/74 75/75/75 76/76/76 
f 73/73/73 23/23/23 25/25/25 
f 75/75/75 77/77/77 78/78/78 
f 77/77/77 17/17/17 19/19/19 
f 79/79/79 80/80/80 81/81/81 
f 82/82/82 83/83/83 84/84/84 
f 85/85/85 56/56/56 58/58/58 
f 82/82/82 84/84/84 86/86/86 
f 87/87/87 88/88/88 89/89/89 
f 80/80/80 90/90/90 81/81/81 
f 88/88/88 7/7/7 91/91/91 
f 88/88/88 91/91/91 92/92/92 
f 93/93/93 94/94/94 38/38/38 
f 94/94/94 95/95/95 96/96/96 
f 97/97/97 91/91/91 7/7/7 
f 88/88/88 98/98/98 99/99/99 
f 98/98/98 88/88/88 92/92/92 
f 49/49/49 100/100/100 101/101/101 
f 97/97/97 7/7/7 102/102/102 
f 88/88/88 99/99/99 103/103/103 
f 104/104/104 105/105/105 54/54/54 
f 88/88/88 103/103/103 89/89/89 
f 105/105/105 49/49/49 47/47/47 
f 7/7/7 9/9/9 102/102/102 
f 106/106/106 107/107/107 108/108/108 
f 107/107/107 1/1/1 3/3/3 
f 109/109/109 104/104/104 54/54/54 
f 110/110/110 87/87/87 111/111/111 
f 87/87/87 110/110/110 112/112/112 
f 111/111/111 87/87/87 89/89/89 
f 113/113/113 62/62/62 63/63/63 
f 62/62/62 109/109/109 53/53/53 
f 65/65/65 113/113/113 63/63/63 
f 114/114/114 115/115/115 116/116/116 
f 115/115/115 114/114/114 117/117/117 
f 116/116/116 115/115/115 118/118/118 
f 119/119/119 120/120/120 121/121/121 
f 112/112/112 118/118/118 87/87/87 
f 118/118/118 115/115/115 87/87/87 
f 122/122/122 119/119/119 121/121/121 
f 123/123/123 122/122/122 76/76/76 
f 124/124/124 123/123/123 19/19/19 
f 115/115/115 117/117/117 125/125/125 
f 26/26/26 124/124/124 27/27/27 
f 126/126/126 94/94/94 96/96/96 
f 94/94/94 126/126/126 38/38/38 
f 38/38/38 126/126/126 36/36/36 
f 40/40/40 95/95/95 42/42/42 
f 95/95/95 40/40/40 96/96/96 
f 36/36/36 126/126/126 96/96/96 
f 101/101/101 48/48/48 49/49/49 
f 42/42/42 95/95/95 127/127/127 
f 40/40/40 42/42/42 39/39/39 
f 96/96/96 40/40/40 36/36/36 
f 42/42/42 127/127/127 41/41/41 
f 127/127/127 95/95/95 108/108/108 
f 41/41/41 127/127/127 108/108/108 
f 47/47/47 54/54/54 105/105/105 
f 54/54/54 47/47/47 52/52/52 
f 55/55/55 47/47/47 46/46/46 
f 47/47/47 55/55/55 52/52/52 
f 54/54/54 54/54/54 109/109/109 
f 54/54/54 54/54/54 104/104/104 
f 49/49/49 45/45/45 47/47/47 
f 54/54/54 53/53/53 109/109/109 
f 106/106/106 108/108/108 95/95/95 
f 107/107/107 3/3/3 108/108/108 
f 108/108/108 3/3/3 11/11/11 
f 2/2/2 11/11/11 3/3/3 
f 11/11/11 59/59/59 108/108/108 
f 62/62/62 61/61/61 63/63/63 
f 64/64/64 128/128/128 65/65/65 
f 129/129/129 69/69/69 121/121/121 
f 120/120/120 129/129/129 121/121/121 
f 121/121/121 71/71/71 122/122/122 
f 71/71/71 121/121/121 69/69/69 
f 74/74/74 76/76/76 71/71/71 
f 71/71/71 76/76/76 122/122/122 
f 130/130/130 75/75/75 78/78/78 
f 75/75/75 130/130/130 76/76/76 
f 76/76/76 130/130/130 123/123/123 
f 123/123/123 130/130/130 78/78/78 
f 77/77/77 19/19/19 78/78/78 
f 78/78/78 19/19/19 123/123/123 
f 18/18/18 27/27/27 19/19/19 
f 19/19/19 27/27/27 124/124/124 
f 6/6/6 13/13/13 4/4/4 
f 22/22/22 29/29/29 20/20/20 
f 59/59/59 41/41/41 108/108/108 
f 60/60/60 51/51/51 67/67/67 

g Part1

v 192.378 118.95 36.4601 
v 146.46 118.95 -131.362 
v 192.378 0 36.4601 
v 146.46 0 -131.362 
v 150.318 118.95 -132.417 
v 146.46 118.95 -131.362 
v 196.236 118.95 35.4044 
v 192.378 118.95 36.4601 
v 146.46 118.95 -131.362 
v 150.318 118.95 -132.417 
v 146.46 0 -131.362 
v 150.318 0 -132.417 
v 150.318 118.95 -132.417 
v 196.236 118.95 35.4044 
v 150.318 0 -132.417 
v 196.236 0 35.4044 
v 196.236 0 35.4044 
v 192.378 0 36.4601 
v 150.318 0 -132.417 
v 146.46 0 -131.362 
v 196.236 118.95 35.4044 
v 192.378 118.95 36.4601 
v 196.236 0 35.4044 
v 192.378 0 36.4601 

vn -0.96063 0 0.267717 
vn -0.96063 0 0.267717 
vn -0.96063 0 0.267717 
vn -0.96063 0 0.267717 
vn 0 1 0 
vn 0 1 0 
vn 0 1 0 
vn 0 1 0 
vn -0.267717 0 -0.96063 
vn -0.267717 0 -0.96063 
vn -0.267717 0 -0.96063 
vn -0.267717 0 -0.96063 
vn 0.96063 0 -0.267717 
vn 0.96063 0 -0.267717 
vn 0.96063 0 -0.267717 
vn 0.96063 0 -0.267717 
vn 0 -1 0 
vn 0 -1 0 
vn 0 -1 0 
vn 0 -1 0 
vn 0.267717 0 0.96063 
vn 0.267717 0 0.96063 
vn 0.267717 0 0.96063 
vn 0.267717 0 0.96063 

vt 283.685 74.6723 
vt 57.498 74.6723 
vt 283.685 -79.9626 
vt 57.498 -79.9626 
vt 62.698 74.6723 
vt 57.498 74.6723 
vt 62.698 -151.515 
vt 57.498 -151.515 
vt 62.698 74.6723 
vt 57.498 74.6723 
vt 62.698 -79.9626 
vt 57.498 -79.9626 
vt 283.685 74.6723 
vt 57.498 74.6723 
vt 283.685 -79.9626 
vt 57.498 -79.9626 
vt 62.698 74.6723 
vt 57.498 74.6723 
vt 62.698 -151.515 
vt 57.498 -151.515 
vt 62.698 74.6723 
vt 57.498 74.6723 
vt 62.698 -79.9626 
vt 57.498 -79.9626 

usemtl Union1Mtl

f 131/131/131 132/132/132 133/133/133 
f 133/133/133 132/132/132 134/134/134 
f 135/135/135 136/136/136 137/137/137 
f 137/137/137 136/136/136 138/138/138 
f 139/139/139 140/140/140 141/141/141 
f 141/141/141 140/140/140 142/142/142 
f 143/143/143 144/144/144 145/145/145 
f 145/145/145 144/144/144 146/146/146 
f 147/147/147 148/148/148 149/149/149 
f 149/149/149 148/148/148 150/150/150 
f 151/151/151 152/152/152 153/153/153 
f 153/153/153 152/152/152 154/154/154 

g Part2

v 104.902 118.93 128.854 
v -24.0673 118.93 126.058 
v 104.902 0 128.854 
v -24.0673 0 126.058 
v -23.9806 118.93 122.059 
v -24.0673 118.93 126.058 
v 104.989 118.93 124.855 
v 104.902 118.93 128.854 
v -24.0673 118.93 126.058 
v -23.9806 118.93 122.059 
v -24.0673 0 126.058 
v -23.9806 0 122.059 
v -23.9806 118.93 122.059 
v 104.989 118.93 124.855 
v -23.9806 0 122.059 
v 104.989 0 124.855 
v 104.989 0 124.855 
v 104.902 0 128.854 
v -23.9806 0 122.059 
v -24.0673 0 126.058 
v 104.989 118.93 124.855 
v 104.902 118.93 128.854 
v 104.989 0 124.855 
v 104.902 0 128.854 

vn -0.023622 0 1 
vn -0.023622 0 1 
vn -0.023622 0 1 
vn -0.023622 0 1 
vn 0 1 0 
vn 0 1 0 
vn 0 1 0 
vn 0 1 0 
vn -1 0 -0.023622 
vn -1 0 -0.023622 
vn -1 0 -0.023622 
vn -1 0 -0.023622 
vn 0.023622 0 -1 
vn 0.023622 0 -1 
vn 0.023622 0 -1 
vn 0.023622 0 -1 
vn 0 -1 0 
vn 0 -1 0 
vn 0 -1 0 
vn 0 -1 0 
vn 1 0 0.023622 
vn 1 0 0.023622 
vn 1 0 0.023622 
vn 1 0 0.023622 

vt 84.2821 -61.943 
vt -83.4178 -61.943 
vt 84.2821 -216.552 
vt -83.4178 -216.552 
vt -78.2178 -61.943 
vt -83.4178 -61.943 
vt -78.2178 -229.643 
vt -83.4178 -229.643 
vt -78.2178 -61.943 
vt -83.4178 -61.943 
vt -78.2178 -216.552 
vt -83.4178 -216.552 
vt 84.2821 -61.943 
vt -83.4178 -61.943 
vt 84.2821 -216.552 
vt -83.4178 -216.552 
vt -78.2178 -61.943 
vt -83.4178 -61.943 
vt -78.2178 -229.643 
vt -83.4178 -229.643 
vt -78.2178 -61.943 
vt -83.4178 -61.943 
vt -78.2178 -216.552 
vt -83.4178 -216.552 

usemtl Union1Mtl

f 155/155/155 156/156/156 157/157/157 
f 157/157/157 156/156/156 158/158/158 
f 159/159/159 160/160/160 161/161/161 
f 161/161/161 160/160/160 162/162/162 
f 163/163/163 164/164/164 165/165/165 
f 165/165/165 164/164/164 166/166/166 
f 167/167/167 168/168/168 169/169/169 
f 169/169/169 168/168/168 170/170/170 
f 171/171/171 172/172/172 173/173/173 
f 173/173/173 172/172/172 174/174/174 
f 175/175/175 176/176/176 177/177/177 
f 177/177/177 176/176/176 178/178/178 

g Part3

v 150.961 119.53 -129.544 
v 21.9609 119.53 -129.544 
v 150.961 0 -129.544 
v 21.9609 0 -129.544 
v 21.9609 119.53 -133.544 
v 21.9609 119.53 -129.544 
v 150.961 119.53 -133.544 
v 150.961 119.53 -129.544 
v 21.9609 119.53 -129.544 
v 21.9609 119.53 -133.544 
v 21.9609 0 -129.544 
v 21.9609 0 -133.544 
v 21.9609 119.53 -133.544 
v 150.961 119.53 -133.544 
v 21.9609 0 -133.544 
v 150.961 0 -133.544 
v 150.961 0 -133.544 
v 150.961 0 -129.544 
v 21.9609 0 -133.544 
v 21.9609 0 -129.544 
v 150.961 119.53 -133.544 
v 150.961 119.53 -129.544 
v 150.961 0 -133.544 
v 150.961 0 -129.544 

vn 0 0 1 
vn 0 0 1 
vn 0 0 1 
vn 0 0 1 
vn 0 1 0 
vn 0 1 0 
vn 0 1 0 
vn 0 1 0 
vn -1 0 0 
vn -1 0 0 
vn -1 0 0 
vn -1 0 0 
vn 0 0 -1 
vn 0 0 -1 
vn 0 0 -1 
vn 0 0 -1 
vn 0 -1 0 
vn 0 -1 0 
vn 0 -1 0 
vn 0 -1 0 
vn 1 0 0 
vn 1 0 0 
vn 1 0 0 
vn 1 0 0 

vt 314.723 -7.69474 
vt 147.023 -7.69474 
vt 314.723 -163.084 
vt 147.023 -163.084 
vt 152.223 -7.69474 
vt 147.023 -7.69474 
vt 152.223 -175.395 
vt 147.023 -175.395 
vt 152.223 -7.69474 
vt 147.023 -7.69474 
vt 152.223 -163.084 
vt 147.023 -163.084 
vt 314.723 -7.69474 
vt 147.023 -7.69474 
vt 314.723 -163.084 
vt 147.023 -163.084 
vt 152.223 -7.69474 
vt 147.023 -7.69474 
vt 152.223 -175.395 
vt 147.023 -175.395 
vt 152.223 -7.69474 
vt 147.023 -7.69474 
vt 152.223 -163.084 
vt 147.023 -163.084 

usemtl Union1Mtl

f 179/179/179 180/180/180 181/181/181 
f 181/181/181 180/180/180 182/182/182 
f 183/183/183 184/184/184 185/185/185 
f 185/185/185 184/184/184 186/186/186 
f 187/187/187 188/188/188 189/189/189 
f 189/189/189 188/188/188 190/190/190 
f 191/191/191 192/192/192 193/193/193 
f 193/193/193 192/192/192 194/194/194 
f 195/195/195 196/196/196 197/197/197 
f 197/197/197 196/196/196 198/198/198 
f 199/199/199 200/200/200 201/201/201 
f 201/201/201 200/200/200 202/202/202 

g Part4

v 26.7311 120.13 -131.986 
v -64.4856 120.13 -40.7688 
v 26.7311 0 -131.986 
v -64.4856 0 -40.7688 
v -67.3141 120.13 -43.5972 
v -64.4856 120.13 -40.7688 
v 23.9027 120.13 -134.814 
v 26.7311 120.13 -131.986 
v -64.4856 120.13 -40.7688 
v -67.3141 120.13 -43.5972 
v -64.4856 0 -40.7688 
v -67.3141 0 -43.5972 
v -67.3141 120.13 -43.5972 
v 23.9027 120.13 -134.814 
v -67.3141 0 -43.5972 
v 23.9027 0 -134.814 
v 23.9027 0 -134.814 
v 26.7311 0 -131.986 
v -67.3141 0 -43.5972 
v -64.4856 0 -40.7688 
v 23.9027 120.13 -134.814 
v 26.7311 120.13 -131.986 
v 23.9027 0 -134.814 
v 26.7311 0 -131.986 

vn 0.708661 0 0.708661 
vn 0.708661 0 0.708661 
vn 0.708661 0 0.708661 
vn 0.708661 0 0.708661 
vn 0 1 0 
vn 0 1 0 
vn 0 1 0 
vn 0 1 0 
vn -0.708661 0 0.708661 
vn -0.708661 0 0.708661 
vn -0.708661 0 0.708661 
vn -0.708661 0 0.708661 
vn -0.708661 0 -0.708661 
vn -0.708661 0 -0.708661 
vn -0.708661 0 -0.708661 
vn -0.708661 0 -0.708661 
vn 0 -1 0 
vn 0 -1 0 
vn 0 -1 0 
vn 0 -1 0 
vn 0.708661 0 -0.708661 
vn 0.708661 0 -0.708661 
vn 0.708661 0 -0.708661 
vn 0.708661 0 -0.708661 

vt 114.842 -106.712 
vt -52.8583 -106.712 
vt 114.842 -262.881 
vt -52.8583 -262.881 
vt -47.6583 -106.712 
vt -52.8583 -106.712 
vt -47.6583 -274.412 
vt -52.8583 -274.412 
vt -47.6583 -106.712 
vt -52.8583 -106.712 
vt -47.6583 -262.881 
vt -52.8583 -262.881 
vt 114.842 -106.712 
vt -52.8583 -106.712 
vt 114.842 -262.881 
vt -52.8583 -262.881 
vt -47.6583 -106.712 
vt -52.8583 -106.712 
vt -47.6583 -274.412 
vt -52.8583 -274.412 
vt -47.6583 -106.712 
vt -52.8583 -106.712 
vt -47.6583 -262.881 
vt -52.8583 -262.881 

usemtl Union1Mtl

f 203/203/203 204/204/204 205/205/205 
f 205/205/205 204/204/204 206/206/206 
f 207/207/207 208/208/208 209/209/209 
f 209/209/209 208/208/208 210/210/210 
f 211/211/211 212/212/212 213/213/213 
f 213/213/213 212/212/212 214/214/214 
f 215/215/215 216/216/216 217/217/217 
f 217/217/217 216/216/216 218/218/218 
f 219/219/219 220/220/220 221/221/221 
f 221/221/221 220/220/220 222/222/222 
f 223/223/223 224/224/224 225/225/225 
f 225/225/225 224/224/224 226/226/226 

g Part5

v 195.023 119.08 36.3058 
v 103.806 119.08 127.523 
v 195.023 0 36.3058 
v 103.806 0 127.523 
v 100.977 119.08 124.694 
v 103.806 119.08 127.523 
v 192.194 119.08 33.4774 
v 195.023 119.08 36.3058 
v 103.806 119.08 127.523 
v 100.977 119.08 124.694 
v 103.806 0 127.523 
v 100.977 0 124.694 
v 100.977 119.08 124.694 
v 192.194 119.08 33.4774 
v 100.977 0 124.694 
v 192.194 0 33.4774 
v 192.194 0 33.4774 
v 195.023 0 36.3058 
v 100.977 0 124.694 
v 103.806 0 127.523 
v 192.194 119.08 33.4774 
v 195.023 119.08 36.3058 
v 192.194 0 33.4774 
v 195.023 0 36.3058 

vn 0.708661 0 0.708661 
vn 0.708661 0 0.708661 
vn 0.708661 0 0.708661 
vn 0.708661 0 0.708661 
vn 0 1 0 
vn 0 1 0 
vn 0 1 0 
vn 0 1 0 
vn -0.708661 0 0.708661 
vn -0.708661 0 0.708661 
vn -0.708661 0 0.708661 
vn -0.708661 0 0.708661 
vn -0.708661 0 -0.708661 
vn -0.708661 0 -0.708661 
vn -0.708661 0 -0.708661 
vn -0.708661 0 -0.708661 
vn 0 -1 0 
vn 0 -1 0 
vn 0 -1 0 
vn 0 -1 0 
vn 0.708661 0 -0.708661 
vn 0.708661 0 -0.708661 
vn 0.708661 0 -0.708661 
vn 0.708661 0 -0.708661 

vt 325.696 -7.67925 
vt 157.996 -7.67925 
vt 325.696 -162.483 
vt 157.996 -162.483 
vt 163.196 -7.67925 
vt 157.996 -7.67925 
vt 163.196 -175.379 
vt 157.996 -175.379 
vt 163.196 -7.67925 
vt 157.996 -7.67925 
vt 163.196 -162.483 
vt 157.996 -162.483 
vt 325.696 -7.67925 
vt 157.996 -7.67925 
vt 325.696 -162.483 
vt 157.996 -162.483 
vt 163.196 -7.67925 
vt 157.996 -7.67925 
vt 163.196 -175.379 
vt 157.996 -175.379 
vt 163.196 -7.67925 
vt 157.996 -7.67925 
vt 163.196 -162.483 
vt 157.996 -162.483 

usemtl Union1Mtl

f 227/227/227 228/228/228 229/229/229 
f 229/229/229 228/228/228 230/230/230 
f 231/231/231 232/232/232 233/233/233 
f 233/233/233 232/232/232 234/234/234 
f 235/235/235 236/236/236 237/237/237 
f 237/237/237 236/236/236 238/238/238 
f 239/239/239 240/240/240 241/241/241 
f 241/241/241 240/240/240 242/242/242 
f 243/243/243 244/244/244 245/245/245 
f 245/245/245 244/244/244 246/246/246 
f 247/247/247 248/248/248 249/249/249 
f 249/249/249 248/248/248 250/250/250 

