{
  "asset": {
    "version": "2.0",
    "generator": "THREE.JS GLTFExporter"
  },
  "scenes": [
    {
      "nodes": [
        4
      ],
      "name": "AuxScene"
    }
  ],
  "scene": 0,
  "nodes": [
    {
      "name": "Tube001",
      "extras": {
        "altspace": {
          "collider": {
            "enabled": false
          }
        }
      },
      "mesh": 0
    },
    {
      "name": "Tube002",
      "extras": {
        "altspace": {
          "collider": {
            "enabled": false
          }
        }
      },
      "mesh": 1
    },
    {
      "children": [
        0,
        1
      ]
    },
    {
      "matrix": [
        1.93,
        0,
        0,
        0,
        0,
        1,
        0,
        0,
        0,
        0,
        2.309,
        0,
        -37.583,
        -0.5840000000000001,
        -37.544,
        1
      ],
      "extras": {
        "altspace": {
          "collider": {
            "enabled": false
          }
        }
      },
      "children": [
        2
      ]
    },
    {
      "children": [
        3
      ]
    }
  ],
  "meshes": [
    {
      "primitives": [
        {
          "mode": 4,
          "attributes": {
            "POSITION": 0,
            "NORMAL": 1,
            "TEXCOORD_0": 2
          },
          "material": 0
        }
      ]
    },
    {
      "primitives": [
        {
          "mode": 4,
          "attributes": {
            "POSITION": 3,
            "NORMAL": 4,
            "TEXCOORD_0": 5
          },
          "material": 1
        }
      ]
    }
  ],
  "materials": [
    {
      "pbrMetallicRoughness": {
        "baseColorFactor": [
          0.5882353187,
          0.5882353187,
          0.5882353187,
          1
        ],
        "metallicFactor": 0.5,
        "roughnessFactor": 0.5,
        "baseColorTexture": {
          "index": 0
        }
      },
      "name": "07___Default"
    },
    {
      "pbrMetallicRoughness": {
        "baseColorFactor": [
          0.5882353187,
          0.5882353187,
          0.5882353187,
          1
        ],
        "metallicFactor": 0.5,
        "roughnessFactor": 0.5,
        "baseColorTexture": {
          "index": 1
        }
      },
      "name": "07___Default"
    }
  ],
  "textures": [
    {
      "sampler": 0,
      "source": 0
    },
    {
      "sampler": 1,
      "source": 1
    }
  ],
  "samplers": [
    {
      "magFilter": 9729,
      "minFilter": 9987
    },
    {
      "magFilter": 9729,
      "minFilter": 9987
    }
  ],
  "images": [
    {
      "uri": "http://localhost:8080/textures/walls2_uv.png"
    },
    {
      "uri": "http://localhost:8080/textures/walls2_uv.png"
    }
  ],
  "accessors": [
    {
      "bufferView": 0,
      "componentType": 5126,
      "count": 2376,
      "max": [
        35.636680603027344,
        0.2553887367248535,
        13.10630989074707
      ],
      "min": [
        18.26506233215332,
        -24.6112003326416,
        -4.533296585083008
      ],
      "type": "VEC3"
    },
    {
      "bufferView": 1,
      "componentType": 5126,
      "count": 2376,
      "max": [
        0.9848111271858215,
        0.7484329342842102,
        1
      ],
      "min": [
        -0.9848111271858215,
        -0.7484329342842102,
        -1
      ],
      "type": "VEC3"
    },
    {
      "bufferView": 2,
      "componentType": 5126,
      "count": 2376,
      "max": [
        0.9799999594688416,
        0.9685119390487671
      ],
      "min": [
        0.5355743765830994,
        0.019999999552965164
      ],
      "type": "VEC2"
    },
    {
      "bufferView": 3,
      "componentType": 5126,
      "count": 2376,
      "max": [
        11.732986450195312,
        0.2553887367248535,
        12.467207908630371
      ],
      "min": [
        -1.2442259788513184,
        -24.616802215576172,
        -0.7101984024047852
      ],
      "type": "VEC3"
    },
    {
      "bufferView": 4,
      "componentType": 5126,
      "count": 2376,
      "max": [
        0.9848111271858215,
        0.7484329342842102,
        1
      ],
      "min": [
        -0.9848111271858215,
        -0.7484329342842102,
        -1
      ],
      "type": "VEC3"
    },
    {
      "bufferView": 5,
      "componentType": 5126,
      "count": 2376,
      "max": [
        0.513620138168335,
        0.6017692685127258
      ],
      "min": [
        0.019999999552965164,
        0.019999999552965164
      ],
      "type": "VEC2"
    }
  ],
  "bufferViews": [
    {
      "buffer": 0,
      "byteOffset": 0,
      "byteLength": 28512,
      "byteStride": 12,
      "target": 34962
    },
    {
      "buffer": 0,
      "byteOffset": 28512,
      "byteLength": 28512,
      "byteStride": 12,
      "target": 34962
    },
    {
      "buffer": 0,
      "byteOffset": 57024,
      "byteLength": 19008,
      "byteStride": 8,
      "target": 34962
    },
    {
      "buffer": 0,
      "byteOffset": 76032,
      "byteLength": 28512,
      "byteStride": 12,
      "target": 34962
    },
    {
      "buffer": 0,
      "byteOffset": 104544,
      "byteLength": 28512,
      "byteStride": 12,
      "target": 34962
    },
    {
      "buffer": 0,
      "byteOffset": 133056,
      "byteLength": 19008,
      "byteStride": 8,
      "target": 34962
    }
  ],
  "buffers": [
    {
      "byteLength": 152064,
      "uri": "data:application/octet-stream;base64,"
    }
  ]
}